<svg width="208" height="208" viewBox="0 0 208 208" fill="none" xmlns="http://www.w3.org/2000/svg">
<g clip-path="url(#clip0)">
<path d="M81.493 133.15L52.4748 162.168L50.0248 159.718L79.0431 130.7C80.398 129.345 80.398 127.155 79.0431 125.8C77.6882 124.445 75.4981 124.445 74.1432 125.8L45.1249 154.818L42.675 152.368L75.1585 119.885C76.5134 118.53 76.5134 116.34 75.1585 114.985C73.8036 113.63 71.6135 113.63 70.2586 114.985L37.7716 147.468L32.8717 142.565C32.2063 141.903 31.3019 141.529 30.3524 141.55C29.4099 141.571 28.5158 141.969 27.8782 142.662L18.0715 153.266C16.8066 154.631 16.8482 156.752 18.165 158.069L47.5679 187.472C48.2194 188.123 49.0996 188.487 50.0179 188.487C50.0387 188.487 50.0629 188.487 50.0872 188.487C51.0298 188.466 51.9238 188.068 52.5649 187.375L62.3716 176.771C63.633 175.402 63.5949 173.285 62.2781 171.968L57.3781 167.068L86.3964 138.05C87.7513 136.695 87.7513 134.505 86.3964 133.15C85.0415 131.795 82.8445 131.798 81.493 133.15ZM49.9209 180.025L25.4213 155.525L30.5188 150.015L35.3182 154.818C35.3182 154.818 35.3182 154.822 35.3216 154.822C35.3216 154.822 35.3251 154.822 35.3251 154.825L42.668 162.172C42.668 162.172 42.668 162.172 42.668 162.175H42.6715L55.0148 174.518L49.9209 180.025Z" fill="#750D1D"/>
<path d="M206.929 7.67568C205.124 2.25944 200.446 -0.530106 194.08 0.0832483C193.848 0.100575 188.712 0.582249 181.369 2.88666L179.498 1.01541C178.847 0.363936 177.966 8.15559e-05 177.048 8.15559e-05H170.118C169.199 8.15559e-05 168.316 0.363936 167.668 1.01541L164.202 4.48069C163.551 5.13216 163.187 6.00888 163.187 6.93064V11.2345C162.244 11.8202 161.302 12.4266 160.366 13.0677L158.706 11.4078C158.055 10.7563 157.175 10.3925 156.256 10.3925H149.326C148.408 10.3925 147.524 10.7563 146.876 11.4078L143.411 14.8731C142.759 15.5245 142.395 16.4013 142.395 17.323V24.2536C142.395 25.1753 142.759 26.0555 143.411 26.7035L144.679 27.9718C143.643 29.8812 143.026 31.9465 142.773 34.0603L86.9682 99.2908C87.3528 97.416 87.8553 95.4235 88.5137 93.3305C89.8028 89.2276 89.1617 84.7955 86.7568 81.1673C84.435 77.6605 80.7584 75.4288 76.6728 75.0338C70.8581 74.4794 65.3691 77.4179 60.3895 83.7836L59.991 84.2896L59.8038 84.9099C57.2672 93.2473 48.0045 115.609 35.7894 118.88C26.0208 121.496 18.8789 125.069 13.3136 130.121C-1.06036 143.168 -3.5415 160.048 6.33455 177.658C10.4236 184.949 16.0893 191.436 23.1723 196.932C25.3624 198.63 27.594 200.2 29.8118 201.607C36.5345 205.855 44.1026 208 51.6916 208C57.8009 208 63.9275 206.611 69.6383 203.8C82.0163 197.712 90.1735 185.899 91.4592 172.179L91.5319 171.279C92.4364 159.278 99.762 149.073 110.189 145.282C111.319 144.87 112.507 144.488 113.751 144.145C116.524 143.383 118.897 141.515 120.27 139.02C121.534 136.719 121.822 134.11 121.08 131.677C119.739 127.283 115.241 122.851 101.321 126.708C101.256 126.725 100.441 126.93 99.1694 126.892L162.466 53.5664C163.305 53.4208 164.143 53.2268 164.979 52.953C167.065 52.2704 169.043 51.2654 170.866 49.9764C173.663 47.9942 175.811 44.9864 176.913 41.5037C177.059 41.0463 177.197 40.5577 177.343 40.0379C178.053 37.5152 178.788 34.9093 181.577 32.3138C182.943 31.0455 186.55 29.5901 189.184 28.5263L190.493 27.9995C190.927 27.8194 191.737 27.6773 192.597 27.5213C195.438 27.0154 199.735 26.2496 203.481 22.1987C207.245 18.1478 208.558 12.5825 206.929 7.67568ZM171.552 6.93411H175.572L177.048 8.38606V12.43L175.614 13.8647H171.552L170.118 12.43V8.36873L171.552 6.93411ZM150.761 17.3299H154.822L156.256 18.7646V22.8259L154.822 24.2605H150.761L149.326 22.8259V18.7646L150.761 17.3299ZM135.891 73.762L126.216 64.0835L144.114 43.1636C144.585 44.2552 145.133 45.3294 145.836 46.3482C147.954 49.4288 150.802 51.6154 153.987 52.8006L135.891 73.762ZM122.269 89.5429L112.656 79.9302L121.697 69.3646L131.351 79.0189L122.269 89.5429ZM108.647 105.324L99.1001 95.777L108.138 85.2113L117.729 94.7998L108.647 105.324ZM92.0205 124.286C91.2616 123.724 90.5686 123.08 89.9344 122.363C89.827 122.241 89.7265 122.12 89.6226 121.999C89.0127 121.261 88.4652 120.457 87.9939 119.59C87.9211 119.459 87.8587 119.32 87.7894 119.185C87.332 118.281 86.9404 117.331 86.6528 116.323C86.6251 116.222 86.6078 116.118 86.58 116.018C86.2924 114.947 86.081 113.838 85.9979 112.684C85.9632 112.206 85.9355 111.7 85.9216 111.17L94.5779 101.051L104.104 110.577L92.1799 124.39C92.128 124.359 92.0725 124.324 92.0205 124.286ZM103.248 133.372C109.565 131.625 113.862 131.743 114.458 133.704C114.704 134.508 114.458 135.226 114.205 135.683C113.737 136.532 112.885 137.201 111.922 137.468C110.487 137.859 109.118 138.299 107.822 138.774C94.8413 143.49 85.7345 156.045 84.6256 170.755L84.5598 171.549C83.5029 182.839 76.7802 192.569 66.5819 197.587C55.9608 202.816 43.6002 202.126 33.5162 195.757C31.4856 194.472 29.4341 193.03 27.4208 191.467C21.0724 186.543 16.0131 180.76 12.378 174.279C4.00935 159.348 5.89099 146.221 17.971 135.257C22.6872 130.977 28.9178 127.9 37.581 125.578C54.7757 120.976 64.6691 92.4122 66.2285 87.5816C69.5274 83.5237 72.809 81.6248 76.0075 81.9332C78.0035 82.1272 79.8124 83.243 80.9767 84.9965C82.2207 86.8747 82.5603 89.1548 81.8985 91.2548C79.9128 97.5893 78.9842 103.764 79.0119 109.69C79.0049 109.78 78.9668 109.867 78.9668 109.957C78.9772 111.104 79.0153 112.199 79.0881 113.197C79.2267 115.096 79.5767 116.933 80.1208 118.682C81.7425 123.925 85.0796 128.337 89.5879 131.005C89.6641 131.05 89.7335 131.074 89.8097 131.119C90.3364 131.417 90.8493 131.674 91.473 131.968C91.4799 131.972 91.4869 131.968 91.4973 131.972C97.7729 134.9 102.763 133.524 103.248 133.372ZM198.408 17.4928C196.242 19.8353 193.779 20.2754 191.398 20.6982C190.164 20.9165 189 21.1244 187.884 21.5819L186.609 22.0982C183.123 23.5016 179.172 25.0922 176.868 27.2337C172.654 31.1564 171.466 35.3702 170.682 38.1598C170.558 38.5998 170.443 39.0157 170.319 39.4073C169.667 41.4587 168.444 43.2017 166.867 44.3176C165.609 45.2081 164.251 45.8977 162.827 46.3655C162.182 46.5769 161.555 46.7225 160.948 46.8056C160.799 46.7987 160.654 46.7606 160.501 46.7744C157.819 46.9928 155.189 46.0259 153.127 44.0646C150.812 41.8572 149.489 38.6934 149.582 35.592C149.586 35.5157 149.558 35.4464 149.555 35.3737C149.641 33.9876 150.002 32.5703 150.785 31.1876H156.256H157.691L158.706 30.1723L162.172 26.707L163.187 25.6917V24.2605V19.5235C164.022 18.9309 164.861 18.3591 165.703 17.8116L167.668 19.7764L168.683 20.7918H170.118H177.048H178.483L179.498 19.7764L182.963 16.3112L183.979 15.2958V13.8647V9.31822C190.275 7.39499 194.631 6.98955 194.697 6.98609C198.706 6.61184 199.812 8.22666 200.352 9.86227C201.173 12.333 200.408 15.327 198.408 17.4928Z" fill="#750D1D"/>
</g>
<defs>
<clipPath id="clip0">
<rect width="208" height="208" fill="white"/>
</clipPath>
</defs>
</svg>
