<svg width="208" height="185" viewBox="0 0 208 185" fill="none" xmlns="http://www.w3.org/2000/svg">
<path d="M208 179.711L185.254 159.4L136.336 115.721L136.714 115.3C147.267 103.183 148.144 86.3202 139.202 73.3954L174.305 42.0539L176.936 44.4036C178.254 45.58 179.987 46.1666 181.717 46.1666C183.447 46.1666 185.18 45.58 186.498 44.4036L186.805 44.129L191.747 48.5413L196.688 44.129L191.747 39.7167L196.688 35.3044L201.629 39.7167L206.571 35.3044L200.616 29.9872C203.083 24.4142 201.811 17.8145 196.768 13.3148L191.663 8.75278C186.62 4.25625 179.229 3.12354 172.991 5.32032L167.033 0L162.091 4.41228L167.033 8.82455L162.091 13.2399L157.15 8.82455L152.209 13.2368L157.15 17.6522L156.846 17.9237C154.208 20.2796 154.208 24.1084 156.846 26.4643L159.474 28.8108L124.566 59.9807C109.921 51.2872 90.5989 51.8146 76.4667 61.6377L76.0823 61.9216L29.6495 20.4606L24.5334 15.8892L19.5886 20.3015L24.9563 25.0944C23.0762 27.6251 22.0593 30.5895 22.0593 33.6974C22.0593 37.8663 23.88 41.7856 27.2103 44.7562L62.4953 75.4674C64.931 81.2402 62.338 89.0724 55.9988 94.7391C48.1604 101.738 37.121 103.476 30.8587 98.6864L28.6256 96.9764L15.9018 106.375C6.57818 112.85 0.812088 122.601 0.0782222 133.127C-0.634676 143.418 3.55186 153.49 11.551 160.908C8.34295 163.782 7.69995 168.05 9.5451 171.523L1.02526 179.131C-0.34113 180.351 -0.34113 182.323 1.02526 183.543C1.70321 184.152 2.59783 184.454 3.49245 184.454C4.38707 184.454 5.28168 184.149 5.96313 183.54L14.476 175.939C15.8668 176.532 17.3835 176.875 18.97 176.875C21.7657 176.875 24.3972 175.901 26.3716 174.141C34.0597 180.754 44.2989 184.454 54.9295 184.454C55.7787 184.454 56.6314 184.429 57.484 184.386C69.2748 183.73 80.1954 178.579 87.4118 170.288L97.7628 158.748L95.9386 156.789C90.7247 151.191 92.7166 141.38 100.475 134.453C106.566 129.014 114.851 126.664 121.295 128.443C122.407 129.538 123.99 130.977 126.366 133.114L158.076 161.61C161.372 164.555 165.761 166.181 170.43 166.181C173.91 166.181 177.23 165.273 180.064 163.594L203.059 184.127L208 179.711ZM161.791 22.336L172.058 13.1651C172.421 12.8405 172.827 12.5784 173.232 12.3101C173.501 12.1384 173.774 11.9699 174.099 11.7921L174.214 11.7297C175.815 10.9028 177.597 10.4565 179.393 10.4565C182.049 10.4565 184.705 11.3583 186.725 13.1619L191.83 17.724C195.203 20.7352 195.72 25.3129 193.459 28.8483L193.358 29.0012C193.165 29.2914 192.977 29.5317 192.785 29.7719C192.487 30.1308 192.194 30.4928 191.83 30.8173L181.717 39.8478L179.225 37.6604L179.246 37.6416L164.419 24.3986L164.279 24.5234L161.791 22.336ZM169.364 37.6416L107.729 92.6703L102.788 88.258L130.224 63.7596L164.419 33.2231L169.364 37.6416ZM29.0485 33.6974C29.0485 32.2776 29.4014 30.9015 30.0689 29.6596L70.6727 65.9158L68.2509 67.7038L65.7278 69.5667L32.1202 40.3127C30.1423 38.5497 29.0485 36.2 29.0485 33.6974ZM16.4994 169.723C15.14 168.509 15.14 166.537 16.4924 165.32L25.0611 157.666L30.0025 162.081L21.4372 169.723C20.1268 170.902 17.8273 170.902 16.4994 169.723ZM95.5333 130.04C86.1048 138.456 83.4874 150.507 88.8935 158.658L81.9323 166.421C75.9111 173.336 66.8461 177.611 57.0542 178.154C47.5279 178.678 38.1834 175.63 31.2955 169.754L39.8887 162.081L25.0646 148.841L16.4679 156.517C9.88407 150.367 6.46286 142.023 7.05694 133.51C7.665 124.77 12.4526 116.673 20.277 111.237L28.734 104.99C37.8793 109.945 51.4174 107.651 60.9402 99.1483C68.7891 92.1367 72.0915 82.635 69.6383 74.7809L74.8138 70.9584L80.8594 66.4962C92.1505 58.667 107.534 57.9961 119.52 64.4929L92.9053 88.258L107.729 101.495L134.107 77.945C140.624 88.4827 139.621 101.776 131.248 111.408L121.715 122.049C113.076 120.333 103.057 123.322 95.5333 130.04ZM163.021 157.201C154.484 149.537 134.243 131.36 127.652 125.41L128.77 124.162L131.94 120.626L174.948 159.029C171.104 160.674 166.114 159.962 163.021 157.201Z" fill="#750D1D"/>
<path d="M66.7412 113.524C68.1076 114.744 70.3162 114.744 71.6825 113.524C73.0489 112.304 73.0489 110.332 71.6825 109.112C67.7197 105.573 60.8074 105.579 56.8585 109.112L42.0309 122.349C40.6645 123.569 38.4559 123.569 37.0895 122.349C35.7231 121.129 33.5145 121.129 32.1481 122.349C30.7818 123.569 30.7818 125.541 32.1481 126.761C34.1925 128.586 36.8763 129.498 39.5602 129.498C42.244 129.498 44.9279 128.586 46.9722 126.761L61.8033 113.524C63.1173 112.341 65.4132 112.348 66.7412 113.524Z" fill="#750D1D"/>
<path d="M79.0947 120.143C77.7283 121.363 77.7283 123.335 79.0947 124.555C80.4576 125.775 80.4576 127.75 79.0947 128.97L64.2705 142.207C62.2926 143.973 61.1988 146.326 61.1988 148.825C61.1988 151.328 62.2926 153.681 64.2705 155.447C64.952 156.052 65.8466 156.358 66.7412 156.358C67.6359 156.358 68.534 156.052 69.2154 155.444C70.5783 154.221 70.5783 152.249 69.2119 151.028C68.5514 150.442 68.188 149.662 68.188 148.825C68.188 147.992 68.5514 147.209 69.2119 146.619L84.036 133.383C88.1247 129.732 88.1247 123.793 84.036 120.143C82.6696 118.923 80.4576 118.923 79.0947 120.143Z" fill="#750D1D"/>
</svg>
