<svg width="54" height="54" viewBox="0 0 54 54" fill="none" xmlns="http://www.w3.org/2000/svg">
<g clip-path="url(#clip0)">
<path d="M52.16 0.248998C51.943 0.0589984 51.657 -0.0260016 51.372 0.00799844L20.372 4.008C19.873 4.072 19.5 4.497 19.5 5V11V39.623C17.674 37.428 14.773 36 11.5 36C5.986 36 1.5 40.037 1.5 45C1.5 49.963 5.986 54 11.5 54C17.014 54 21.5 49.963 21.5 45V11.88L50.5 8.138V30.623C48.674 28.428 45.773 27 42.5 27C36.986 27 32.5 31.037 32.5 36C32.5 40.963 36.986 45 42.5 45C48.014 45 52.5 40.963 52.5 36V7V0.999998C52.5 0.711998 52.376 0.437998 52.16 0.248998ZM11.5 52C7.089 52 3.5 48.859 3.5 45C3.5 41.141 7.089 38 11.5 38C15.911 38 19.5 41.141 19.5 45C19.5 48.859 15.911 52 11.5 52ZM42.5 43C38.089 43 34.5 39.859 34.5 36C34.5 32.141 38.089 29 42.5 29C46.911 29 50.5 32.141 50.5 36C50.5 39.859 46.911 43 42.5 43ZM21.5 5.878L50.5 2.137V6.12L21.5 9.861V5.878Z" fill="#5C010F"/>
</g>
<defs>
<clipPath id="clip0">
<rect width="54" height="54" fill="white"/>
</clipPath>
</defs>
</svg>
