<svg width="208" height="185" viewBox="0 0 208 185" fill="none" xmlns="http://www.w3.org/2000/svg">
<path d="M206.079 127.523C206.339 127.136 206.607 126.755 206.815 126.337C206.925 126.122 206.992 125.879 207.083 125.655C207.252 125.246 207.429 124.837 207.552 124.404C207.615 124.176 207.644 123.93 207.693 123.697C207.795 123.227 207.894 122.756 207.943 122.262C207.961 122.059 207.957 121.847 207.968 121.641C208 121.075 208.014 120.504 207.982 119.908C207.975 119.763 207.95 119.613 207.94 119.465C207.883 118.77 207.792 118.061 207.654 117.332C207.644 117.277 207.63 117.219 207.615 117.163C206.343 110.805 201.933 103.294 194.858 95.9241C194.752 95.8135 194.64 95.709 194.534 95.5983C193.815 94.8577 193.088 94.117 192.316 93.3825C191.4 92.5067 190.455 91.64 189.475 90.7857C172.565 76.0465 153.424 70.4901 144.981 77.8566C144.456 78.3145 143.991 78.8124 143.578 79.341C143.349 79.636 143.176 79.9618 142.979 80.2783C142.824 80.5272 142.648 80.7639 142.514 81.0282C142.306 81.4369 142.158 81.8794 142.002 82.3189C141.932 82.5187 141.84 82.7031 141.78 82.909C141.639 83.3915 141.555 83.9047 141.474 84.421C141.445 84.6085 141.396 84.7867 141.378 84.9773C141.319 85.512 141.311 86.0713 141.311 86.6368C141.311 86.8335 141.297 87.024 141.308 87.2269C141.329 87.7985 141.403 88.3947 141.488 88.994C141.519 89.2122 141.537 89.4212 141.576 89.6424C141.682 90.2509 141.833 90.8779 141.999 91.5109C142.059 91.7384 142.108 91.9658 142.179 92.1963C142.373 92.854 142.609 93.5301 142.866 94.2123C142.919 94.3537 142.954 94.4889 143.011 94.6333C146.405 103.263 148.055 111.02 148.055 118.353V126.063C142.225 126.063 137.48 130.2 137.48 135.283C137.48 140.148 141.84 144.106 147.325 144.438C145.905 147.779 142.545 150.274 138.53 150.606C135.488 150.837 132.601 150.022 130.37 148.252C128.17 146.509 126.908 144.02 126.908 141.426V138.353C127.846 138.353 128.741 138.03 129.4 137.453L132.925 134.379C133.588 133.802 133.958 133.024 133.958 132.207V126.06C133.958 125.243 133.588 124.462 132.925 123.887L129.4 120.814C128.737 120.236 127.846 119.914 126.908 119.914V116.84C127.846 116.84 128.741 116.518 129.4 115.94L132.925 112.867C133.588 112.289 133.958 111.512 133.958 110.694V104.548C133.958 103.73 133.588 102.95 132.925 102.375L129.4 99.3016C128.737 98.7238 127.846 98.4011 126.908 98.4011V95.3279C127.846 95.3279 128.741 95.0052 129.4 94.4274L132.925 91.3542C133.588 90.7764 133.958 89.9989 133.958 89.1814V83.035C133.958 82.2175 133.588 81.4369 132.925 80.8622L129.4 77.789C128.737 77.2112 127.846 76.8885 126.908 76.8885V73.8153C127.846 73.8153 128.741 73.4926 129.4 72.9148L132.925 69.8416C133.588 69.2638 133.958 68.4863 133.958 67.6688V61.5224C133.958 60.7049 133.588 59.9243 132.925 59.3496L129.4 56.2764C128.737 55.6986 127.846 55.3759 126.908 55.3759V52.3027C127.846 52.3027 128.741 51.98 129.4 51.4022L132.925 48.329C133.588 47.7512 133.958 46.9737 133.958 46.1562V40.0098C133.958 39.1923 133.588 38.4117 132.925 37.837L129.4 34.7638C128.737 34.186 127.846 33.8633 126.908 33.8633H126.742C125.967 25.0493 121.899 16.7116 115.046 10.1196C102.186 -2.26247 80.3833 -3.4303 65.4121 7.43664C61.0551 10.6051 55.5242 12.3507 49.8487 12.3507H49.3517C49.3517 10.6512 47.776 9.2775 45.8266 9.2775H35.2512C33.3018 9.2775 31.7261 10.6512 31.7261 12.3507H21.1507C21.1437 12.3507 21.1401 12.3538 21.1331 12.3538C20.7207 12.3569 20.3188 12.4399 19.931 12.5659C19.8253 12.5997 19.7301 12.6365 19.6349 12.6796C19.5362 12.7195 19.4305 12.741 19.3388 12.7902L1.71321 22.0099C0.652147 22.5661 0 23.5649 0 24.6467V33.8664C0 35.5659 1.57573 36.9396 3.52512 36.9396H21.1507H31.7261C31.7261 38.6391 33.3018 40.0129 35.2512 40.0129H45.8266C47.776 40.0129 49.3517 38.6391 49.3517 36.9396H51.0191C57.5828 36.9396 63.8787 35.1848 69.2263 31.8627L79.3117 25.5963C82.9249 23.3529 87.7297 22.9441 91.8364 24.5392C95.6788 26.0235 98.1464 28.8908 98.6082 32.3882C98.6716 32.8584 98.7034 33.3409 98.7034 33.8295V55.3821H95.1783C93.2289 55.3821 91.6531 56.7558 91.6531 58.4553C91.6531 60.1548 93.2289 61.5285 95.1783 61.5285H98.7034V67.675H95.1783C93.2289 67.675 91.6531 69.0487 91.6531 70.7482C91.6531 72.4477 93.2289 73.8214 95.1783 73.8214H98.7034V98.4073H95.1783C93.2289 98.4073 91.6531 99.781 91.6531 101.48C91.6531 103.18 93.2289 104.554 95.1783 104.554H98.7034V110.7H95.1783C93.2289 110.7 91.6531 112.074 91.6531 113.773C91.6531 115.473 93.2289 116.847 95.1783 116.847H98.7034V140.111C98.7034 164.113 120.404 184 147.082 184.448C147.399 184.455 147.717 184.455 148.034 184.455C161.38 184.455 174.285 179.694 183.567 171.313C193.205 162.61 198.094 151.144 197.333 139.02C197.142 135.965 199.131 132.932 202.765 130.707C203.318 130.375 203.833 130 204.309 129.582C204.845 129.115 205.317 128.608 205.737 128.07C205.867 127.895 205.959 127.701 206.079 127.523ZM200.865 122.117C200.844 122.277 200.794 122.415 200.763 122.566C200.703 122.836 200.65 123.113 200.562 123.356C200.509 123.497 200.435 123.617 200.371 123.749C200.269 123.97 200.177 124.198 200.051 124.391C199.843 124.705 199.603 124.988 199.321 125.23C194.689 129.275 178.935 124.619 164.799 112.298C157.89 106.275 152.638 99.5966 150.008 93.4932C149.881 93.2012 149.789 92.9246 149.677 92.6388C149.455 92.0733 149.264 91.5263 149.098 90.9916C149.067 90.8871 149.039 90.7857 149.01 90.6842C148.883 90.254 148.774 89.836 148.683 89.4304C148.633 89.2091 148.598 88.997 148.559 88.7819C148.506 88.4961 148.457 88.2134 148.425 87.9399C148.39 87.6233 148.372 87.3221 148.358 87.024C148.351 86.8581 148.337 86.686 148.337 86.5231C148.341 86.1635 148.369 85.8255 148.411 85.4936C148.422 85.3983 148.425 85.2969 148.439 85.2047C148.496 84.8574 148.584 84.5347 148.686 84.2274C148.707 84.1629 148.721 84.086 148.742 84.0215C148.855 83.7203 149 83.4499 149.158 83.1917C149.194 83.1333 149.218 83.0657 149.254 83.0104C149.458 82.7092 149.691 82.4357 149.959 82.2021C150.241 81.9563 150.565 81.7473 150.924 81.5629C151.058 81.4953 151.221 81.4523 151.365 81.3908C151.608 81.2925 151.848 81.188 152.12 81.1142C152.303 81.065 152.511 81.0374 152.705 80.9974C152.976 80.9452 153.241 80.8868 153.53 80.853C153.745 80.8284 153.981 80.8253 154.21 80.813C154.495 80.7977 154.781 80.7823 155.084 80.7854C155.853 80.7915 156.681 80.8622 157.555 80.9851C157.753 81.0128 157.964 81.0527 158.169 81.0896C158.951 81.2218 159.766 81.3939 160.615 81.6121C160.791 81.6582 160.964 81.692 161.144 81.7411C162.124 82.0116 163.15 82.3466 164.2 82.7307C164.457 82.826 164.722 82.9305 164.983 83.0288C165.938 83.3976 166.918 83.8064 167.919 84.2643C168.081 84.338 168.24 84.4026 168.406 84.4794C169.534 85.008 170.683 85.6073 171.846 86.2465C172.132 86.4032 172.421 86.5692 172.706 86.7321C173.813 87.3652 174.927 88.0351 176.052 88.7635C176.154 88.828 176.253 88.8864 176.351 88.951C177.55 89.7377 178.755 90.5982 179.957 91.4956C180.25 91.7138 180.543 91.9381 180.835 92.1625C182.055 93.0998 183.271 94.074 184.477 95.122C194.153 103.558 199.709 112.655 200.756 118.853C200.759 118.884 200.77 118.918 200.773 118.949C200.84 119.37 200.868 119.763 200.897 120.153C200.907 120.316 200.928 120.485 200.932 120.642C200.939 120.897 200.914 121.134 200.9 121.374C200.904 121.632 200.9 121.887 200.865 122.117ZM144.53 135.283C144.53 133.587 146.109 132.21 148.055 132.21V138.356C146.109 138.356 144.53 136.976 144.53 135.283ZM126.904 130.937L125.445 132.21H123.379H121.313L119.854 130.937V127.336L121.313 126.063H123.379H125.445L126.904 127.336V130.937ZM126.904 109.425L125.445 110.697H123.379H121.313L119.854 109.425V105.823L121.313 104.551H123.379H125.445L126.904 105.823V109.425ZM126.904 87.9122L125.445 89.1845H123.379H121.313L119.854 87.9122V84.3104L121.313 83.038H123.379H125.445L126.904 84.3104V87.9122ZM126.904 66.3996L125.445 67.6719H123.379H121.313L119.854 66.3996V62.7978L121.313 61.5255H123.379H125.445L126.904 62.7978V66.3996ZM126.904 44.887L125.445 46.1593H123.379H121.313L119.854 44.887V41.2852L121.313 40.0129H123.379H125.445L126.904 41.2852V44.887ZM7.05024 26.3862L17.6256 20.8544V30.7901H7.05024V26.3862ZM24.6758 30.7932V18.5003H31.7261V30.7932H24.6758ZM38.7763 33.8664V15.427H42.3014V33.8664H38.7763ZM178.491 167.042C170.228 174.503 159.029 178.557 147.22 178.299C124.356 177.915 105.754 160.785 105.754 140.108V116.844H109.279C111.228 116.844 112.804 115.47 112.804 113.77C112.804 112.071 111.228 110.697 109.279 110.697H105.754V104.551H109.279C111.228 104.551 112.804 103.177 112.804 101.477C112.804 99.7779 111.228 98.4042 109.279 98.4042H105.754V73.8184H109.279C111.228 73.8184 112.804 72.4446 112.804 70.7451C112.804 69.0456 111.228 67.6719 109.279 67.6719H105.754V61.5255H109.279C111.228 61.5255 112.804 60.1517 112.804 58.4522C112.804 56.7527 111.228 55.379 109.279 55.379H105.754V33.8264C105.754 33.1042 105.704 32.3943 105.613 31.6906C104.865 26.0512 100.787 21.2785 94.6953 18.9213C92.122 17.9225 89.3653 17.4338 86.6263 17.4338C82.5865 17.4338 78.5749 18.5033 75.219 20.5901L65.1372 26.8564C60.9881 29.4317 56.1058 30.7932 51.0191 30.7932H49.3517V18.5003H49.8487C57.1739 18.5003 64.3052 16.2507 69.9278 12.1633C81.9767 3.39841 99.5071 4.31424 109.818 14.25C115.497 19.708 118.938 26.5859 119.695 33.8695C119.424 33.8818 119.17 33.9647 118.913 34.0293C118.765 34.0662 118.61 34.0692 118.472 34.1184C118.063 34.2721 117.683 34.4841 117.362 34.7638L113.837 37.837C113.174 38.4148 112.804 39.1923 112.804 40.0098V46.1562C112.804 46.9737 113.174 47.7543 113.837 48.329L117.362 51.4022C118.025 51.98 118.916 52.3027 119.854 52.3027V55.3759C118.916 55.3759 118.021 55.6986 117.362 56.2764L113.837 59.3496C113.174 59.9274 112.804 60.7049 112.804 61.5224V67.6688C112.804 68.4863 113.174 69.2669 113.837 69.8416L117.362 72.9148C118.025 73.4926 118.916 73.8153 119.854 73.8153V76.8885C118.916 76.8885 118.021 77.2112 117.362 77.789L113.837 80.8622C113.174 81.44 112.804 82.2175 112.804 83.035V89.1814C112.804 89.9989 113.174 90.7795 113.837 91.3542L117.362 94.4274C118.025 95.0052 118.916 95.3279 119.854 95.3279V98.4011C118.916 98.4011 118.021 98.7238 117.362 99.3016L113.837 102.375C113.174 102.953 112.804 103.73 112.804 104.548V110.694C112.804 111.512 113.174 112.292 113.837 112.867L117.362 115.94C118.025 116.518 118.916 116.84 119.854 116.84V119.914C118.916 119.914 118.021 120.236 117.362 120.814L113.837 123.887C113.174 124.465 112.804 125.243 112.804 126.06V132.207C112.804 133.024 113.174 133.805 113.837 134.379L117.362 137.453C118.025 138.03 118.916 138.353 119.854 138.353V141.426C119.854 145.747 121.959 149.893 125.628 152.8C129.294 155.705 134.258 157.14 139.2 156.719C146.761 156.092 152.884 150.987 154.591 144.496H162.159C164.108 144.496 165.684 143.123 165.684 141.423C165.684 139.724 164.108 138.35 162.159 138.35H155.109V132.204H162.159C164.108 132.204 165.684 130.83 165.684 129.13C165.684 127.431 164.108 126.057 162.159 126.057H155.109V118.353C155.109 116.192 154.957 113.995 154.696 111.767C156.297 113.426 158.003 115.061 159.822 116.644C170.739 126.162 182.548 131.792 191.844 132.646C190.713 134.764 190.152 137.032 190.297 139.352C190.945 149.749 186.75 159.58 178.491 167.042Z" fill="#750D1D"/>
</svg>
