<svg width="60" height="60" viewBox="0 0 60 60" fill="none" xmlns="http://www.w3.org/2000/svg">
<g clip-path="url(#clip0)">
<path d="M30.1002 -1.27643e-05C17.9708 -1.27643e-05 7.03576 7.30674 2.39402 18.5128C-2.24771 29.7184 0.318115 42.6172 8.89476 51.1939C16.468 58.7831 27.5168 61.7522 37.8738 58.981C48.2308 56.2098 56.3205 48.1201 59.0923 37.7626C61.8635 27.4056 58.8944 16.3568 51.3051 8.78352C45.6935 3.1414 38.0577 -0.0215533 30.1002 -1.27643e-05ZM49.8544 49.7431C38.9443 60.6532 21.2555 60.6532 10.3455 49.7431C-0.564547 38.8331 -0.564547 21.1443 10.3455 10.2343C21.2555 -0.675785 38.9443 -0.675785 49.8544 10.2348C60.7644 21.1448 60.7644 38.8331 49.8544 49.7431Z" fill="#5C010F"/>
<path d="M30.3832 13.6663C30.3832 13.0997 29.9239 12.6403 29.3573 12.6403C19.9957 12.6403 12.3803 20.2562 12.3803 29.6178C12.3803 30.1843 12.8397 30.6437 13.4063 30.6437C13.9728 30.6437 14.4322 30.1843 14.4322 29.6178C14.4412 21.3783 21.1183 14.7017 29.3573 14.6922C29.9239 14.6922 30.3832 14.2328 30.3832 13.6663Z" fill="#5C010F"/>
<path d="M46.3342 29.6177C46.3342 29.0512 45.8749 28.5918 45.3083 28.5918C44.7417 28.5918 44.2824 29.0512 44.2824 29.6177C44.2734 37.8567 37.5963 44.5333 29.3573 44.5428C28.7907 44.5428 28.3314 45.0022 28.3314 45.5688C28.3314 46.1353 28.7907 46.5947 29.3573 46.5947C38.7184 46.5947 46.3342 38.9784 46.3342 29.6177Z" fill="#5C010F"/>
<path d="M29.7295 8.32466C30.2986 8.32466 30.7594 7.86329 30.7594 7.29422C30.7589 6.72515 30.2976 6.26378 29.7285 6.26428C16.6328 6.2753 6.02036 16.8903 6.01285 29.9859C6.01235 30.5535 6.47121 31.0139 7.03878 31.0149C7.60535 31.0149 8.06471 30.5555 8.06471 29.9889C8.07122 18.0495 17.79 8.33167 29.7295 8.32466Z" fill="#5C010F"/>
<path d="M29.728 51.6527C29.1589 51.6527 28.6975 52.1141 28.6975 52.6832C28.6975 53.2522 29.1589 53.7136 29.728 53.7136H29.7285C42.8246 53.7026 53.4371 43.0871 53.4446 29.9914C53.4451 29.4244 52.9858 28.964 52.4187 28.963C51.8521 28.963 51.3928 29.4224 51.3928 29.9889C51.3862 41.9279 41.6675 51.6462 29.728 51.6527Z" fill="#5C010F"/>
<path d="M38.9644 29.6178C38.9644 24.3118 34.6633 20.0107 29.3573 20.0107C24.0513 20.0107 19.7502 24.3118 19.7502 29.6178C19.7502 34.9233 24.0513 39.2249 29.3573 39.2249C34.6608 39.2188 38.9584 34.9208 38.9644 29.6178ZM21.8021 29.6178C21.8021 25.4449 25.1849 22.0625 29.3573 22.0625C33.5302 22.0625 36.9125 25.4449 36.9125 29.6178C36.9125 33.7901 33.5302 37.173 29.3573 37.173C25.1869 37.168 21.8076 33.7881 21.8026 29.6178H21.8021Z" fill="#5C010F"/>
<path d="M33.3964 29.6177C33.3964 27.3865 31.588 25.5781 29.3568 25.5781C27.1261 25.5781 25.3172 27.3865 25.3172 29.6177C25.3172 31.8484 27.1261 33.6573 29.3568 33.6573C31.587 33.6548 33.3944 31.8474 33.3964 29.6177ZM27.3701 29.6177C27.3701 28.5197 28.2597 27.63 29.3578 27.63C30.4554 27.63 31.3455 28.5197 31.3455 29.6177C31.3455 30.7153 30.4554 31.6055 29.3578 31.6055C28.2602 31.6045 27.3711 30.7148 27.3701 29.6177Z" fill="#5C010F"/>
</g>
<defs>
<clipPath id="clip0">
<rect width="60" height="60" fill="white"/>
</clipPath>
</defs>
</svg>
