<svg width="61" height="61" viewBox="0 0 61 61" fill="none" xmlns="http://www.w3.org/2000/svg">
<g clip-path="url(#clip0)">
<path d="M59.766 15.896L59.403 15.51H57.566L57.975 12.17C58.018 11.746 57.878 11.322 57.593 11.007C57.307 10.692 56.899 10.51 56.473 10.51H54.036V7.00001C54.036 6.17901 53.367 5.51001 52.545 5.51001H50.036V2.00001C50.036 1.17901 49.367 0.51001 48.545 0.51001H11.526C10.705 0.51001 10.036 1.17901 10.036 2.00001V5.51001H7.526C6.705 5.51001 6.036 6.17901 6.036 7.00001V10.51H3.599C3.173 10.51 2.765 10.692 2.479 11.007C2.194 11.322 2.054 11.746 2.1 12.192L2.506 15.51H1.136C0.815 15.51 0.513 15.651 0.306 15.896L0 16.306L5.959 58.162C6.097 58.943 6.772 59.51 7.564 59.51H52.506C53.297 59.51 53.973 58.945 54.117 58.13L60.003 16.778C60.059 16.462 59.972 16.141 59.766 15.896ZM12.036 2.51001H48.036V5.51001H12.036V2.51001ZM8.036 7.51001H10.036H50.036H52.036V10.51H8.036V7.51001ZM4.153 12.51H6.036H54.036H55.918L55.551 15.51H4.521L4.153 12.51ZM52.187 57.51H7.886L2.191 17.51H2.752H57.32H57.88L52.187 57.51Z" fill="#5C010F"/>
<path d="M29.536 20.51C18.232 20.51 9.03601 28.136 9.03601 37.51C9.03601 46.884 18.232 54.51 29.536 54.51C40.84 54.51 50.036 46.884 50.036 37.51C50.036 28.136 40.84 20.51 29.536 20.51ZM29.536 52.51C19.335 52.51 11.036 45.781 11.036 37.51C11.036 29.239 19.335 22.51 29.536 22.51C39.737 22.51 48.036 29.239 48.036 37.51C48.036 45.781 39.737 52.51 29.536 52.51Z" fill="#5C010F"/>
<path d="M30.536 25.449C30.536 24.896 30.089 24.449 29.536 24.449C25.543 24.449 21.758 25.659 18.59 27.948C18.143 28.271 18.042 28.896 18.365 29.344C18.56 29.615 18.866 29.758 19.177 29.758C19.38 29.758 19.584 29.696 19.762 29.569C22.586 27.528 25.966 26.449 29.536 26.449C30.089 26.449 30.536 26.002 30.536 25.449Z" fill="#5C010F"/>
<path d="M30.536 29.2C30.536 28.647 30.089 28.2 29.536 28.2C26.431 28.2 23.487 29.141 21.024 30.923C20.577 31.247 20.476 31.872 20.799 32.319C20.995 32.59 21.3 32.733 21.611 32.733C21.814 32.733 22.019 32.671 22.196 32.544C24.316 31.011 26.854 30.2 29.536 30.2C30.089 30.2 30.536 29.753 30.536 29.2Z" fill="#5C010F"/>
<path d="M30.536 32.95C30.536 32.397 30.089 31.95 29.536 31.95C27.307 31.95 25.197 32.63 23.432 33.917C22.986 34.242 22.887 34.867 23.213 35.313C23.408 35.582 23.713 35.724 24.022 35.724C24.226 35.724 24.432 35.661 24.61 35.532C26.03 34.497 27.734 33.95 29.536 33.95C30.089 33.95 30.536 33.503 30.536 32.95Z" fill="#5C010F"/>
<path d="M39.4 45.638C36.576 47.68 33.196 48.759 29.626 48.759C29.073 48.759 28.626 49.206 28.626 49.759C28.626 50.312 29.073 50.759 29.626 50.759C33.62 50.759 37.405 49.549 40.572 47.259C41.019 46.935 41.12 46.31 40.797 45.863C40.474 45.414 39.847 45.314 39.4 45.638Z" fill="#5C010F"/>
<path d="M28.626 46.008C28.626 46.561 29.073 47.008 29.626 47.008C32.732 47.008 35.676 46.066 38.138 44.284C38.586 43.96 38.686 43.335 38.363 42.888C38.038 42.44 37.413 42.34 36.967 42.663C34.848 44.197 32.31 45.008 29.627 45.008C29.073 45.008 28.626 45.455 28.626 46.008Z" fill="#5C010F"/>
<path d="M28.626 42.257C28.626 42.81 29.073 43.257 29.626 43.257C31.856 43.257 33.967 42.577 35.73 41.29C36.175 40.965 36.274 40.339 35.948 39.893C35.624 39.449 34.999 39.349 34.551 39.675C33.133 40.71 31.43 41.257 29.626 41.257C29.073 41.257 28.626 41.704 28.626 42.257Z" fill="#5C010F"/>
<path d="M29.932 39.183C31.2172 39.183 32.259 38.4268 32.259 37.494C32.259 36.5612 31.2172 35.805 29.932 35.805C28.6468 35.805 27.605 36.5612 27.605 37.494C27.605 38.4268 28.6468 39.183 29.932 39.183Z" fill="#5C010F"/>
</g>
<defs>
<clipPath id="clip0">
<rect width="60.02" height="60.02" fill="white"/>
</clipPath>
</defs>
</svg>
